<svg xmlns="http://www.w3.org/2000/svg" xmlns:xlink="http://www.w3.org/1999/xlink" contentStyleType="text/css" data-diagram-type="ACTIVITY" height="470px" preserveAspectRatio="none" style="width:253px;height:470px;background:#FFFFFF;" version="1.1" viewBox="0 0 253 470" width="253px" zoomAndPan="magnify"><defs/><g><ellipse cx="130.6719" cy="20" fill="#222222" rx="10" ry="10" style="stroke:#222222;stroke-width:1;"/><rect fill="#F1F1F1" height="33.9688" rx="12.5" ry="12.5" style="stroke:#181818;stroke-width:0.5;" width="169.5781" x="45.8828" y="50"/><text fill="#000000" font-family="sans-serif" font-size="12" lengthAdjust="spacing" textLength="149.5781" x="55.8828" y="71.1387">Code Push / PR / Release</text><rect fill="#F1F1F1" height="33.9688" rx="12.5" ry="12.5" style="stroke:#181818;stroke-width:0.5;" width="104.6211" x="78.3613" y="103.9688"/><text fill="#000000" font-family="sans-serif" font-size="12" lengthAdjust="spacing" textLength="84.6211" x="88.3613" y="125.1074">CI/CD Pipeline</text><rect fill="#F1F1F1" height="33.9688" rx="12.5" ry="12.5" style="stroke:#181818;stroke-width:0.5;" width="143.457" x="58.9434" y="157.9375"/><text fill="#000000" font-family="sans-serif" font-size="12" lengthAdjust="spacing" textLength="123.457" x="68.9434" y="179.0762">Build &amp; Push Images</text><rect fill="#F1F1F1" height="33.9688" rx="12.5" ry="12.5" style="stroke:#181818;stroke-width:0.5;" width="157.8711" x="51.7363" y="211.9063"/><text fill="#000000" font-family="sans-serif" font-size="12" lengthAdjust="spacing" textLength="137.8711" x="61.7363" y="233.0449">Deploy Full Application</text><rect fill="#F1F1F1" height="33.9688" rx="12.5" ry="12.5" style="stroke:#181818;stroke-width:0.5;" width="105.8984" x="77.7227" y="265.875"/><text fill="#000000" font-family="sans-serif" font-size="12" lengthAdjust="spacing" textLength="85.8984" x="87.7227" y="287.0137">Run E2E Tests</text><polygon fill="#F1F1F1" points="90.3887,319.8438,170.9551,319.8438,182.9551,331.8438,170.9551,343.8438,90.3887,343.8438,78.3887,331.8438,90.3887,319.8438" style="stroke:#181818;stroke-width:0.5;"/><text fill="#000000" font-family="sans-serif" font-size="11" lengthAdjust="spacing" textLength="80.5664" x="90.3887" y="335.6519">All Tests Pass?</text><text fill="#000000" font-family="sans-serif" font-size="11" lengthAdjust="spacing" textLength="19.0083" x="59.3804" y="329.2495">yes</text><text fill="#000000" font-family="sans-serif" font-size="11" lengthAdjust="spacing" textLength="13.7017" x="182.9551" y="329.2495">no</text><rect fill="#F1F1F1" height="33.9688" rx="12.5" ry="12.5" style="stroke:#181818;stroke-width:0.5;" width="113.4863" x="11" y="353.8438"/><text fill="#000000" font-family="sans-serif" font-size="12" lengthAdjust="spacing" textLength="93.4863" x="21" y="374.9824">Release/Deploy</text><rect fill="#F1F1F1" height="33.9688" rx="12.5" ry="12.5" style="stroke:#181818;stroke-width:0.5;" width="98.2285" x="144.4863" y="353.8438"/><text fill="#000000" font-family="sans-serif" font-size="12" lengthAdjust="spacing" textLength="78.2285" x="154.4863" y="374.9824">Fail &amp; Report</text><polygon fill="#F1F1F1" points="130.6719,393.8125,142.6719,405.8125,130.6719,417.8125,118.6719,405.8125,130.6719,393.8125" style="stroke:#181818;stroke-width:0.5;"/><ellipse cx="130.6719" cy="448.8125" fill="none" rx="11" ry="11" style="stroke:#222222;stroke-width:1;"/><ellipse cx="130.6719" cy="448.8125" fill="#222222" rx="6" ry="6" style="stroke:#222222;stroke-width:1;"/><line style="stroke:#181818;stroke-width:1;" x1="130.6719" x2="130.6719" y1="30" y2="50"/><polygon fill="#181818" points="126.6719,40,130.6719,50,134.6719,40,130.6719,44" style="stroke:#181818;stroke-width:1;"/><line style="stroke:#181818;stroke-width:1;" x1="130.6719" x2="130.6719" y1="83.9688" y2="103.9688"/><polygon fill="#181818" points="126.6719,93.9688,130.6719,103.9688,134.6719,93.9688,130.6719,97.9688" style="stroke:#181818;stroke-width:1;"/><line style="stroke:#181818;stroke-width:1;" x1="130.6719" x2="130.6719" y1="137.9375" y2="157.9375"/><polygon fill="#181818" points="126.6719,147.9375,130.6719,157.9375,134.6719,147.9375,130.6719,151.9375" style="stroke:#181818;stroke-width:1;"/><line style="stroke:#181818;stroke-width:1;" x1="130.6719" x2="130.6719" y1="191.9063" y2="211.9063"/><polygon fill="#181818" points="126.6719,201.9063,130.6719,211.9063,134.6719,201.9063,130.6719,205.9063" style="stroke:#181818;stroke-width:1;"/><line style="stroke:#181818;stroke-width:1;" x1="130.6719" x2="130.6719" y1="245.875" y2="265.875"/><polygon fill="#181818" points="126.6719,255.875,130.6719,265.875,134.6719,255.875,130.6719,259.875" style="stroke:#181818;stroke-width:1;"/><line style="stroke:#181818;stroke-width:1;" x1="78.3887" x2="67.7432" y1="331.8438" y2="331.8438"/><line style="stroke:#181818;stroke-width:1;" x1="67.7432" x2="67.7432" y1="331.8438" y2="353.8438"/><polygon fill="#181818" points="63.7432,343.8438,67.7432,353.8438,71.7432,343.8438,67.7432,347.8438" style="stroke:#181818;stroke-width:1;"/><line style="stroke:#181818;stroke-width:1;" x1="182.9551" x2="193.6006" y1="331.8438" y2="331.8438"/><line style="stroke:#181818;stroke-width:1;" x1="193.6006" x2="193.6006" y1="331.8438" y2="353.8438"/><polygon fill="#181818" points="189.6006,343.8438,193.6006,353.8438,197.6006,343.8438,193.6006,347.8438" style="stroke:#181818;stroke-width:1;"/><line style="stroke:#181818;stroke-width:1;" x1="67.7432" x2="67.7432" y1="387.8125" y2="405.8125"/><line style="stroke:#181818;stroke-width:1;" x1="67.7432" x2="118.6719" y1="405.8125" y2="405.8125"/><polygon fill="#181818" points="108.6719,401.8125,118.6719,405.8125,108.6719,409.8125,112.6719,405.8125" style="stroke:#181818;stroke-width:1;"/><line style="stroke:#181818;stroke-width:1;" x1="193.6006" x2="193.6006" y1="387.8125" y2="405.8125"/><line style="stroke:#181818;stroke-width:1;" x1="193.6006" x2="142.6719" y1="405.8125" y2="405.8125"/><polygon fill="#181818" points="152.6719,401.8125,142.6719,405.8125,152.6719,409.8125,148.6719,405.8125" style="stroke:#181818;stroke-width:1;"/><line style="stroke:#181818;stroke-width:1;" x1="130.6719" x2="130.6719" y1="299.8438" y2="319.8438"/><polygon fill="#181818" points="126.6719,309.8438,130.6719,319.8438,134.6719,309.8438,130.6719,313.8438" style="stroke:#181818;stroke-width:1;"/><line style="stroke:#181818;stroke-width:1;" x1="130.6719" x2="130.6719" y1="417.8125" y2="437.8125"/><polygon fill="#181818" points="126.6719,427.8125,130.6719,437.8125,134.6719,427.8125,130.6719,431.8125" style="stroke:#181818;stroke-width:1;"/><!--SRC=[BOqn3eCm34NtdC9J1HDIHnWg2aLYYw9U82gcM7AJ28U1szU5BfR-Vq_-alsQJTt52S5kia05rkbnoEW56qLZrVLWAI5J-1NtZNY2owcF7_z6qRR7n767OME6DYMcbyyKWnAt1NXS7_14oMhI34MhqX71Uf5R2Nd10CMEKXg0-ZzUdJyRWom8HOW773onhZjCSStAmaIpaHpJ5m00]--></g></svg>